<svg width="155" height="41" viewBox="0 0 155 41" fill="none" xmlns="http://www.w3.org/2000/svg">
<path d="M29.0944 12.6927L13.9964 38.7815C12.4665 41.4253 9.07805 40.6809 8.1835 37.4948L0.645773 10.6982C0.439624 10.1324 0.358805 9.5206 0.410025 8.91337C0.461249 8.30629 0.643031 7.72133 0.94029 7.20713C1.23755 6.69307 1.64171 6.26445 2.11923 5.95713C2.59675 5.64982 3.13386 5.47245 3.68597 5.43985L26.3206 6.15192C29.0073 6.23625 30.6244 10.0489 29.0944 12.6927Z" fill="#1DACE3"/>
<path d="M33.2878 20.6126L7.17729 36.6621C6.57996 37.029 5.90234 37.2068 5.21918 37.176C4.53601 37.1451 3.87385 36.9068 3.30571 36.4873C2.73757 36.0677 2.28551 35.4833 1.9994 34.7985C1.71329 34.1136 1.60424 33.3549 1.68428 32.606L4.67201 4.65488C4.74082 4.01144 4.94713 3.39511 5.27399 2.85657C5.60088 2.31818 6.03897 1.87302 6.55225 1.55761C7.06554 1.24234 7.63935 1.06579 8.22654 1.04275C8.81371 1.01972 9.39748 1.1507 9.92981 1.42483L33.0528 13.3336C33.6707 13.6535 34.1967 14.1551 34.5729 14.7832C34.9491 15.4114 35.161 16.1416 35.1853 16.894C35.2096 17.6463 35.0454 18.3914 34.7107 19.0475C34.3758 19.7036 33.8835 20.2451 33.2878 20.6126Z" fill="#FB6908"/>
<path d="M4.58366 5.47261L3.09422 19.4061L7.83511 36.2538L19.6607 28.9875L29.0942 12.6927C29.2999 12.3333 29.4537 11.9409 29.55 11.5294L18.6436 5.91219L4.58366 5.47261Z" fill="#001A49"/>
<path d="M48.4803 28.7883V10.4253H52.7563L62.8822 22.6498H60.8623V10.4253H65.9515V28.7883H61.6755L51.5496 16.5638H53.5695V28.7883H48.4803ZM76.8293 29.0244C75.1504 29.0244 73.6814 28.7096 72.4222 28.08C71.1805 27.433 70.2099 26.5585 69.5104 25.4567C68.8283 24.3375 68.4873 23.0695 68.4873 21.653C68.4873 20.2364 68.8196 18.9772 69.4841 17.8754C70.1662 16.7562 71.1018 15.8905 72.291 15.2784C73.4803 14.6488 74.8182 14.334 76.3047 14.334C77.7038 14.334 78.9804 14.6225 80.1347 15.1997C81.2889 15.7593 82.2071 16.59 82.8892 17.6918C83.5712 18.7936 83.9122 20.1315 83.9122 21.7054C83.9122 21.8803 83.9035 22.0814 83.886 22.3088C83.8685 22.5361 83.851 22.746 83.8335 22.9384H72.5796V20.3151H81.184L79.2952 21.0496C79.3127 20.4025 79.1903 19.8429 78.928 19.3707C78.6831 18.8985 78.3334 18.5313 77.8787 18.2689C77.4414 18.0066 76.9255 17.8754 76.3309 17.8754C75.7363 17.8754 75.2116 18.0066 74.7569 18.2689C74.3197 18.5313 73.9787 18.9073 73.7339 19.3969C73.489 19.8691 73.3666 20.4288 73.3666 21.0758V21.8366C73.3666 22.5361 73.5065 23.1395 73.7863 23.6467C74.0836 24.1538 74.5034 24.5473 75.0455 24.8272C75.5876 25.0895 76.2347 25.2207 76.9867 25.2207C77.6863 25.2207 78.2809 25.1245 78.7706 24.9321C79.2777 24.7222 79.7762 24.4074 80.2659 23.9877L82.8892 26.7159C82.2071 27.4679 81.3676 28.0451 80.3708 28.4473C79.3739 28.8321 78.1935 29.0244 76.8293 29.0244ZM95.1557 29.0244C93.949 29.0244 92.9172 28.7621 92.0602 28.2374C91.2033 27.6953 90.5475 26.8908 90.0928 25.824C89.6555 24.7397 89.4369 23.3581 89.4369 21.6792C89.4369 19.9828 89.6468 18.6012 90.0665 17.5344C90.4862 16.4501 91.1158 15.6456 91.9553 15.121C92.8122 14.5963 93.879 14.334 95.1557 14.334C96.4499 14.334 97.6216 14.64 98.6709 15.2521C99.7377 15.8467 100.577 16.6949 101.189 17.7967C101.819 18.881 102.134 20.1752 102.134 21.6792C102.134 23.1832 101.819 24.4861 101.189 25.5879C100.577 26.6897 99.7377 27.5379 98.6709 28.1325C97.6216 28.7271 96.4499 29.0244 95.1557 29.0244ZM86.2103 33.8775V14.5701H90.9584V16.9835L90.9322 21.6792L91.1945 26.4011V33.8775H86.2103ZM94.1064 25.0633C94.666 25.0633 95.1645 24.9321 95.6017 24.6698C96.0564 24.4074 96.4149 24.0227 96.6772 23.5155C96.957 23.0083 97.0969 22.3962 97.0969 21.6792C97.0969 20.9622 96.957 20.3501 96.6772 19.8429C96.4149 19.3357 96.0564 18.951 95.6017 18.6886C95.1645 18.4263 94.666 18.2952 94.1064 18.2952C93.5468 18.2952 93.0396 18.4263 92.5849 18.6886C92.1477 18.951 91.7892 19.3357 91.5093 19.8429C91.247 20.3501 91.1158 20.9622 91.1158 21.6792C91.1158 22.3962 91.247 23.0083 91.5093 23.5155C91.7892 24.0227 92.1477 24.4074 92.5849 24.6698C93.0396 24.9321 93.5468 25.0633 94.1064 25.0633ZM113.711 14.334C114.812 14.334 115.809 14.5613 116.701 15.016C117.593 15.4533 118.293 16.1353 118.8 17.0622C119.324 17.9891 119.587 19.1871 119.587 20.6561V28.7883H114.603V21.4693C114.603 20.455 114.393 19.7205 113.973 19.2658C113.571 18.7936 113.002 18.5575 112.268 18.5575C111.743 18.5575 111.262 18.6799 110.825 18.9247C110.388 19.1521 110.047 19.5106 109.802 20.0003C109.557 20.49 109.435 21.1283 109.435 21.9153V28.7883H104.45V9.32349H109.435V18.61L108.28 17.4295C108.823 16.3976 109.566 15.6281 110.51 15.121C111.455 14.5963 112.521 14.334 113.711 14.334ZM122.716 28.7883V9.32349H127.7V28.7883H122.716ZM130.939 28.7883V14.5701H135.924V28.7883H130.939ZM133.432 12.9961C132.522 12.9961 131.788 12.7425 131.228 12.2353C130.668 11.7282 130.389 11.0986 130.389 10.3466C130.389 9.59456 130.668 8.96497 131.228 8.4578C131.788 7.95063 132.522 7.69705 133.432 7.69705C134.341 7.69705 135.076 7.94189 135.635 8.43157C136.195 8.90376 136.475 9.51587 136.475 10.2679C136.475 11.0549 136.195 11.7107 135.635 12.2353C135.093 12.7425 134.359 12.9961 133.432 12.9961ZM137.51 28.7883L144.042 20.2102L143.937 23.0433L137.668 14.5701H143.281L146.797 19.5806L144.698 19.6855L148.423 14.5701H153.696L147.426 22.8597V20.1315L153.88 28.7883H148.187L144.514 23.4368L146.613 23.7254L142.914 28.7883H137.51Z" fill="white"/>
</svg>
